@startuml class_account

class Account {
  -id: UUID : PK
  -account_type: AccountType
  -password: String
  -email: String
  -name: String
  -phone: String
  -username: String?
  -avatar: String?
  -gender: Gender?
  -date_of_birth: Date?
  -created_at: Timestamp
  -updated_at: Timestamp

  +findAccountById(id: UUID): Account
  +login(\n   username: String, \n   password: String\n): Account
  +logout(id: UUID): Boolean
  +register(account: Account): Account
  +update(account: Account): Account
  +delete(id: UUID): Boolean
  +forgotPassword(email: String): Boolean
}

class User {
  -user_id: UUID : PK
  -account_id: UUID : FK
}

class ParkingEmployee {
  -employee_id: UUID : PK
  -account_id: UUID : FK
  -parking_id: UUID : FK
  -shift_start: Timestamp
  -shift_end: Timestamp
  -salary: Double
  +findEmployeeByParkingId(\n   parking_id: UUID\n): ParkingEmployee
  +updateEmployee(\n   employee: ParkingEmployee\n): ParkingEmployee
}

class ParkingOwner {
  -owner_id: UUID : PK
  -account_id: UUID : FK
  -parking_id: UUID[ ]
  +findOwnerByParkingId(\n   parking_id: UUID\n): ParkingOwner
}

class EmployeeAttendance {
  -id: UUID : PK
  -employee_id: UUID : FK
  -date: Date
  -clock_in: Timestamp
  -clock_out: Timestamp
  -created_at: Timestamp
  +findAttendanceByEmployeeId(\n   employee_id: UUID\n): EmployeeAttendance
  +updateAttendance(\n   attendance: EmployeeAttendance\n): EmployeeAttendance
}

Account <|-- User : Inheritance
Account <|-left- ParkingEmployee : Inheritance
Account <|-- ParkingOwner : Inheritance
ParkingEmployee "1"--"n" EmployeeAttendance : Composition

@enduml